# xmcd
#
# Track frame offsets: 
#        150
#        16440
#        31177
#        44530
#        56582
#        69918
#        78124
#        96008
#        108097
#        120778
#
# Disc length: 1749 seconds
#
# Revision: 0
# Processed by: cddbd v1.5.2PL0 Copyright (c) Steve Scherf et al.
# Submitted via: ExactAudioCopyFreeDBPlugin 1.0
#
DISCID=6a06d30a
DTITLE=Domestic Bumblebees - Cheater
DYEAR=2015
DGENRE=Rock and Roll
TTITLE0=Blue Lover
TTITLE1=Cheater
TTITLE2=Mathilda
TTITLE3=Crying Over You
TTITLE4=It's Me Again
TTITLE5=No Matter What
TTITLE6=Summer Nights
TTITLE7=Rock Awhile
TTITLE8=Sweet Sin
TTITLE9=Rocker
EXTD=
EXTT0=
EXTT1=
EXTT2=
EXTT3=
EXTT4=
EXTT5=
EXTT6=
EXTT7=
EXTT8=
EXTT9=
PLAYORDER=
